PathFileType	4	(X/Y/Z)	Patient4_TMGait_0pt4_03_right_37.trc.trc
DataRate	CameraRate	NumFrames	NumMarkers	Units	OrigDataRate	OrigDataStartFrame	OrigNumFrames
74.074074074074	74.074074074074	4	33	mm	74.074074074074	36	       141
Frame#	Time	Sacral			L.Shoulder			Chest			R.Shoulder			Neck			R.ASIS			L.ASIS			R.Thigh.Superior			R.Thigh.Lateral			R.Thigh.Inferior			R.Patella			L.Thigh.Superior			L.Thigh.Lateral			L.Thigh.Inferior			L.Patella			L.Shank.Superior			L.Shank.Lateral			L.Shank.Inferior			R.Shank.Superior			R.Shank.Lateral			R.Shank.Inferior			R.Heel			R.Midfoot.Superior			R.Midfoot.Lateral			R.Toe			L.Heel			L.Midfoot.Lateral			L.Midfoot.Superior			L.Toe			L.Elbow			L.Wrist			R.Elbow			R.Wrist			
		X1	Y1	Z1	X2	Y2	Z2	X3	Y3	Z3	X4	Y4	Z4	X5	Y5	Z5	X6	Y6	Z6	X7	Y7	Z7	X8	Y8	Z8	X9	Y9	Z9	X10	Y10	Z10	X11	Y11	Z11	X12	Y12	Z12	X13	Y13	Z13	X14	Y14	Z14	X15	Y15	Z15	X16	Y16	Z16	X17	Y17	Z17	X18	Y18	Z18	X19	Y19	Z19	X20	Y20	Z20	X21	Y21	Z21	X22	Y22	Z22	X23	Y23	Z23	X24	Y24	Z24	X25	Y25	Z25	X26	Y26	Z26	X27	Y27	Z27	X28	Y28	Z28	X29	Y29	Z29	X30	Y30	Z30	X31	Y31	Z31	X32	Y32	Z32	X33	Y33	Z33	

36	48.842500000000	869.083512650119	1000.781898167319	480.088793430025	1041.427391249708	1436.673677135245	309.060898937147	1141.279549312537	1369.524749272806	472.538313929733	1048.589785051511	1436.344155409897	645.174228583705	1015.325602536539	1495.035273742031	467.567841064925	1098.984982357910	944.117614705119	603.427152554308	1088.302777362647	963.207291436709	329.085781859315	1151.847923412655	746.181241448105	570.592956138087	1083.081443585548	634.219552079646	637.562223217251	1159.330975930183	585.763285006190	553.947984435846	1165.764234468760	498.054466284107	563.736552480453	1112.027119188378	734.727578857744	349.230067583928	1011.010881296960	629.380211916212	281.614432008490	1088.914762857585	538.849299073425	336.370901252076	1079.074476838838	460.163261201383	334.610465016575	1022.475719491301	400.854632687381	327.836750718268	893.381734712322	330.738073955762	279.347724046750	905.127777743742	201.537037778934	335.753410902103	1140.099927989350	407.683184442280	575.386856086044	1073.822626363318	304.247029838208	643.313773250702	1115.710153375190	208.232012574836	581.649762737264	986.881908018368	42.489217540429	560.270576698330	1156.841246227125	97.812578237684	592.219542125167	1071.409520101922	37.472249066783	633.888821377879	1278.798921906007	48.162332288911	618.604037565897	737.916848981827	84.600673554116	375.466634859972	805.682562781454	61.081310425910	294.326684535514	901.119270107319	103.963585678407	316.114068060334	1012.095512576538	36.598879499755	285.237158768182	990.606452904826	1090.045816574956	188.348618351080	1118.012568015768	858.129829092388	179.899780775832	1025.145780589543	1094.276358540239	776.441564625852	1163.864410534703	872.540539316798	768.716536306011	
37	48.856000000000	869.726591802970	1000.596714321551	484.371865324881	1039.951340203897	1437.189852879920	312.741126434209	1141.169422768494	1369.963158909111	475.367944867903	1049.651942647316	1436.248126507044	648.777227298060	1014.986351637690	1495.169867643449	471.519700892717	1100.670991751788	944.348654850286	606.169028427393	1088.001608530027	963.529521854979	331.970010547581	1152.391551698172	745.674678804379	574.138985302706	1081.875813092252	633.759207781945	639.801050288584	1158.679850624983	585.127284219470	556.777036853037	1164.378521888498	497.228725017373	565.621666507454	1116.653428879143	736.500364580132	352.010598608607	1019.236023812881	628.977261593279	283.438301625904	1099.585048037397	539.713939965157	338.084300618361	1090.390130961864	459.668013481176	335.058125239969	1031.476471027695	400.765497735268	328.428320518743	899.959059617016	335.147173752544	280.154782392863	907.782663485870	205.401562232140	335.543489478879	1137.856472321100	406.970721565106	576.794806641097	1070.683869907157	303.867378643704	644.090498823127	1111.684678645795	207.713642320117	582.154218577359	981.520363074044	42.490825253291	560.344296367627	1151.566620993895	97.725986687035	592.537402932795	1066.029554569059	37.430312915658	634.020888848522	1273.481597703552	47.887538511949	618.840623182365	736.626263086551	95.501544425757	375.302072863245	803.014073816889	68.341274038597	294.268036380687	900.304902984577	106.664523766164	315.546673694750	1007.032152461651	35.867406081398	285.273512244251	987.029749829851	1090.962286840789	192.080476647931	1112.113756259360	857.817602318958	181.997640763352	1028.203886243920	1094.143961428948	780.375969496750	1170.765871321485	875.138728896085	770.113698158068	
38	48.869500000000	870.175031077449	1000.347263302088	488.627097721535	1038.305723633955	1437.511271123708	316.279895139703	1141.018498834236	1370.236972929315	477.991233037356	1050.853015989724	1436.074419674641	652.235095420307	1014.659262517136	1495.190831080073	475.325707997752	1102.197014966189	944.452588180403	608.762030060491	1087.447900126969	963.680008201971	334.719324536353	1152.674049213753	745.062023361724	577.489283976362	1080.518594753095	633.243416898799	641.958591559261	1157.744132426948	584.426140295534	559.421057490189	1162.731054118182	496.352250720816	567.403499041151	1121.397983097508	738.466301626447	354.681394281450	1027.856373606946	628.752254511162	285.150477059776	1110.628422610355	540.949183280411	339.821745806094	1102.186336063414	459.614333602525	335.679266418211	1041.124279496489	400.976859990075	329.086326554754	907.363279636296	339.919461709455	280.958973525137	911.182046054858	209.797900666917	335.454868909304	1135.404955515062	406.218245136812	578.117629357999	1067.398174032652	303.433253135563	644.799026196121	1107.534093180666	207.160434598795	582.592298807783	976.064937925149	42.479035965132	560.391987875191	1146.204186705252	97.574548009083	592.788603267457	1060.556838674937	37.373941653568	634.127491293654	1268.082377102367	47.530700681794	619.050151229998	736.205473934371	107.580781465453	375.291691197101	800.946406662615	76.739852795906	294.305402172616	900.026850873163	109.949414504588	315.164200804086	1001.997198140373	35.041238218328	285.345254567021	983.377590974632	1091.670986953129	195.665646007332	1106.197446503608	857.418361207541	183.682316848192	1031.264804843015	1094.046188141840	784.389147415308	1177.549690108024	877.813542179676	771.409943283379	
39	48.883000000000	870.438074103063	1000.051350376591	492.820541731800	1036.528909003854	1437.667116559186	319.652912971356	1140.833819179084	1370.357683246124	480.391933377271	1052.184865014191	1435.841007717950	655.518112636673	1014.356270012430	1495.124839834388	478.954000794202	1103.535215123564	944.443652223122	611.185757212080	1086.651645094983	963.680177298880	337.308423920326	1152.712972122275	744.396335094032	580.467235191315	1079.188997803662	632.716315487622	644.011925476092	1156.576235225335	583.692958008982	561.757742788592	1160.878007010782	495.445272895045	569.031428815945	1126.123140225497	740.645949527845	357.206233244284	1036.644648392018	628.785967299424	286.758359531382	1121.806821376826	542.623829244222	341.531467639926	1114.255407587272	460.084829950955	336.456070717426	1051.237983091853	401.555890671357	329.810039140430	915.429557081889	345.038154692403	281.791945888690	915.265761486790	214.700984671217	335.534302913311	1132.799824221771	405.446317841867	579.330260920536	1064.037359376055	302.973975815027	645.461936897150	1103.300405211206	206.594533126551	582.965446207028	970.555566468455	42.462584623988	560.435865881921	1140.787017678637	97.388396469987	592.984912402895	1055.033014635922	37.314212891501	634.222843504556	1262.635998275002	47.135717791730	619.239164983816	736.707676371457	120.637382278714	375.494869179038	799.558535886456	86.176961804047	294.488483074430	900.296018082352	113.841947800401	315.015049663166	997.085209802802	34.147003104687	285.454565726622	979.641154989379	1092.174249465599	199.156803916804	1100.244013838511	856.928057397507	184.966105700243	1034.369275319538	1093.994086312256	788.434214256144	1184.216829434955	880.551840483398	772.574923532961	
